<mxfile host="app.diagrams.net" agent="Mozilla/5.0 (Windows NT 10.0; Win64; x64) AppleWebKit/537.36 (KHTML, like Gecko) Chrome/128.0.0.0 Safari/537.36" version="24.7.8">
  <diagram name="Page-1" id="2YBvvXClWsGukQMizWep">
    <mxGraphModel dx="472" dy="737" grid="1" gridSize="10" guides="1" tooltips="1" connect="1" arrows="1" fold="1" page="1" pageScale="1" pageWidth="850" pageHeight="1100" math="0" shadow="0">
      <root>
        <mxCell id="0" />
        <mxCell id="1" parent="0" />
        <mxCell id="9W2UMyhUDM8AN_5umNmA-1" value=":TelaBlog" style="shape=umlLifeline;perimeter=lifelinePerimeter;whiteSpace=wrap;html=1;container=0;dropTarget=0;collapsible=0;recursiveResize=0;outlineConnect=0;portConstraint=eastwest;newEdgeStyle={&quot;edgeStyle&quot;:&quot;elbowEdgeStyle&quot;,&quot;elbow&quot;:&quot;vertical&quot;,&quot;curved&quot;:0,&quot;rounded&quot;:0};" parent="1" vertex="1">
          <mxGeometry x="230" y="167" width="115" height="353" as="geometry" />
        </mxCell>
        <mxCell id="9W2UMyhUDM8AN_5umNmA-2" value="" style="html=1;points=[];perimeter=orthogonalPerimeter;outlineConnect=0;targetShapes=umlLifeline;portConstraint=eastwest;newEdgeStyle={&quot;edgeStyle&quot;:&quot;elbowEdgeStyle&quot;,&quot;elbow&quot;:&quot;vertical&quot;,&quot;curved&quot;:0,&quot;rounded&quot;:0};" parent="9W2UMyhUDM8AN_5umNmA-1" vertex="1">
          <mxGeometry x="52.5" y="70" width="10" height="110" as="geometry" />
        </mxCell>
        <mxCell id="DdnoM_6Xdvgl_mfT2xnZ-1" value="&lt;span style=&quot;color: rgba(0, 0, 0, 0); font-family: monospace; font-size: 0px; text-align: start;&quot;&gt;%3CmxGraphModel%3E%3Croot%3E%3CmxCell%20id%3D%220%22%2F%3E%3CmxCell%20id%3D%221%22%20parent%3D%220%22%2F%3E%3CmxCell%20id%3D%222%22%20value%3D%222.%20eventoPost()%22%20style%3D%22html%3D1%3BverticalAlign%3Dbottom%3BendArrow%3Dblock%3BedgeStyle%3DelbowEdgeStyle%3Belbow%3Dvertical%3Bcurved%3D0%3Brounded%3D0%3B%22%20edge%3D%221%22%20parent%3D%221%22%3E%3CmxGeometry%20x%3D%220.0145%22%20relative%3D%221%22%20as%3D%22geometry%22%3E%3CmxPoint%20x%3D%22293%22%20y%3D%22260%22%20as%3D%22sourcePoint%22%2F%3E%3CArray%20as%3D%22points%22%3E%3CmxPoint%20x%3D%22400%22%20y%3D%22260%22%2F%3E%3C%2FArray%3E%3CmxPoint%20x%3D%22465%22%20y%3D%22260%22%20as%3D%22targetPoint%22%2F%3E%3CmxPoint%20as%3D%22offset%22%2F%3E%3C%2FmxGeometry%3E%3C%2FmxCell%3E%3C%2Froot%3E%3C%2FmxGraphModel%3E&lt;/span&gt;" style="html=1;points=[];perimeter=orthogonalPerimeter;outlineConnect=0;targetShapes=umlLifeline;portConstraint=eastwest;newEdgeStyle={&quot;edgeStyle&quot;:&quot;elbowEdgeStyle&quot;,&quot;elbow&quot;:&quot;vertical&quot;,&quot;curved&quot;:0,&quot;rounded&quot;:0};" vertex="1" parent="9W2UMyhUDM8AN_5umNmA-1">
          <mxGeometry x="52.5" y="213" width="10" height="110" as="geometry" />
        </mxCell>
        <mxCell id="9W2UMyhUDM8AN_5umNmA-4" value=":ControladorBlog" style="shape=umlLifeline;perimeter=lifelinePerimeter;whiteSpace=wrap;html=1;container=0;dropTarget=0;collapsible=0;recursiveResize=0;outlineConnect=0;portConstraint=eastwest;newEdgeStyle={&quot;edgeStyle&quot;:&quot;elbowEdgeStyle&quot;,&quot;elbow&quot;:&quot;vertical&quot;,&quot;curved&quot;:0,&quot;rounded&quot;:0};" parent="1" vertex="1">
          <mxGeometry x="400" y="167" width="140" height="353" as="geometry" />
        </mxCell>
        <mxCell id="9W2UMyhUDM8AN_5umNmA-5" value="" style="html=1;points=[];perimeter=orthogonalPerimeter;outlineConnect=0;targetShapes=umlLifeline;portConstraint=eastwest;newEdgeStyle={&quot;edgeStyle&quot;:&quot;elbowEdgeStyle&quot;,&quot;elbow&quot;:&quot;vertical&quot;,&quot;curved&quot;:0,&quot;rounded&quot;:0};" parent="9W2UMyhUDM8AN_5umNmA-4" vertex="1">
          <mxGeometry x="65" y="80" width="10" height="100" as="geometry" />
        </mxCell>
        <mxCell id="DdnoM_6Xdvgl_mfT2xnZ-5" value="&lt;span style=&quot;color: rgba(0, 0, 0, 0); font-family: monospace; font-size: 0px; text-align: start;&quot;&gt;%3CmxGraphModel%3E%3Croot%3E%3CmxCell%20id%3D%220%22%2F%3E%3CmxCell%20id%3D%221%22%20parent%3D%220%22%2F%3E%3CmxCell%20id%3D%222%22%20value%3D%222.%20eventoPost()%22%20style%3D%22html%3D1%3BverticalAlign%3Dbottom%3BendArrow%3Dblock%3BedgeStyle%3DelbowEdgeStyle%3Belbow%3Dvertical%3Bcurved%3D0%3Brounded%3D0%3B%22%20edge%3D%221%22%20parent%3D%221%22%3E%3CmxGeometry%20x%3D%220.0145%22%20relative%3D%221%22%20as%3D%22geometry%22%3E%3CmxPoint%20x%3D%22293%22%20y%3D%22260%22%20as%3D%22sourcePoint%22%2F%3E%3CArray%20as%3D%22points%22%3E%3CmxPoint%20x%3D%22400%22%20y%3D%22260%22%2F%3E%3C%2FArray%3E%3CmxPoint%20x%3D%22465%22%20y%3D%22260%22%20as%3D%22targetPoint%22%2F%3E%3CmxPoint%20as%3D%22offset%22%2F%3E%3C%2FmxGeometry%3E%3C%2FmxCell%3E%3C%2Froot%3E%3C%2FmxGraphModel%3E&lt;/span&gt;" style="html=1;points=[];perimeter=orthogonalPerimeter;outlineConnect=0;targetShapes=umlLifeline;portConstraint=eastwest;newEdgeStyle={&quot;edgeStyle&quot;:&quot;elbowEdgeStyle&quot;,&quot;elbow&quot;:&quot;vertical&quot;,&quot;curved&quot;:0,&quot;rounded&quot;:0};" vertex="1" parent="9W2UMyhUDM8AN_5umNmA-4">
          <mxGeometry x="65" y="213" width="10" height="110" as="geometry" />
        </mxCell>
        <mxCell id="9W2UMyhUDM8AN_5umNmA-7" value="2. eventoPost()" style="html=1;verticalAlign=bottom;endArrow=block;edgeStyle=elbowEdgeStyle;elbow=vertical;curved=0;rounded=0;" parent="1" source="9W2UMyhUDM8AN_5umNmA-2" target="9W2UMyhUDM8AN_5umNmA-5" edge="1">
          <mxGeometry x="0.0145" relative="1" as="geometry">
            <mxPoint x="390" y="260" as="sourcePoint" />
            <Array as="points">
              <mxPoint x="400" y="260" />
            </Array>
            <mxPoint x="580" y="260" as="targetPoint" />
            <mxPoint as="offset" />
          </mxGeometry>
        </mxCell>
        <mxCell id="9W2UMyhUDM8AN_5umNmA-8" value="" style="endArrow=none;dashed=1;html=1;rounded=0;" parent="1" edge="1">
          <mxGeometry width="50" height="50" relative="1" as="geometry">
            <mxPoint x="100" y="520" as="sourcePoint" />
            <mxPoint x="100" y="190" as="targetPoint" />
          </mxGeometry>
        </mxCell>
        <mxCell id="9W2UMyhUDM8AN_5umNmA-9" value="Usuário" style="shape=umlActor;verticalLabelPosition=bottom;verticalAlign=top;html=1;outlineConnect=0;" parent="1" vertex="1">
          <mxGeometry x="91" y="117" width="20" height="50" as="geometry" />
        </mxCell>
        <mxCell id="9W2UMyhUDM8AN_5umNmA-10" value="" style="endArrow=classic;html=1;rounded=0;" parent="1" target="9W2UMyhUDM8AN_5umNmA-2" edge="1">
          <mxGeometry width="50" height="50" relative="1" as="geometry">
            <mxPoint x="100" y="260" as="sourcePoint" />
            <mxPoint x="320" y="260" as="targetPoint" />
          </mxGeometry>
        </mxCell>
        <mxCell id="9W2UMyhUDM8AN_5umNmA-11" value="1. Inicia criação de uma&lt;div&gt;publicação/comentário&lt;/div&gt;" style="edgeLabel;html=1;align=center;verticalAlign=middle;resizable=0;points=[];" parent="9W2UMyhUDM8AN_5umNmA-10" vertex="1" connectable="0">
          <mxGeometry x="-0.0933" y="-1" relative="1" as="geometry">
            <mxPoint x="8" y="-21" as="offset" />
          </mxGeometry>
        </mxCell>
        <mxCell id="WAS1BrxhrEb62qMjdOB_-1" value=":Postagem" style="shape=umlLifeline;perimeter=lifelinePerimeter;whiteSpace=wrap;html=1;container=0;dropTarget=0;collapsible=0;recursiveResize=0;outlineConnect=0;portConstraint=eastwest;newEdgeStyle={&quot;edgeStyle&quot;:&quot;elbowEdgeStyle&quot;,&quot;elbow&quot;:&quot;vertical&quot;,&quot;curved&quot;:0,&quot;rounded&quot;:0};" parent="1" vertex="1">
          <mxGeometry x="600" y="240" width="140" height="280" as="geometry" />
        </mxCell>
        <mxCell id="9W2UMyhUDM8AN_5umNmA-3" value="" style="html=1;points=[];perimeter=orthogonalPerimeter;outlineConnect=0;targetShapes=umlLifeline;portConstraint=eastwest;newEdgeStyle={&quot;edgeStyle&quot;:&quot;elbowEdgeStyle&quot;,&quot;elbow&quot;:&quot;vertical&quot;,&quot;curved&quot;:0,&quot;rounded&quot;:0};" parent="WAS1BrxhrEb62qMjdOB_-1" vertex="1">
          <mxGeometry x="65" y="150" width="10" height="60" as="geometry" />
        </mxCell>
        <mxCell id="WAS1BrxhrEb62qMjdOB_-3" value="3. criarPost()" style="html=1;verticalAlign=bottom;endArrow=block;edgeStyle=elbowEdgeStyle;elbow=vertical;curved=0;rounded=0;dashed=1;" parent="1" source="9W2UMyhUDM8AN_5umNmA-5" edge="1">
          <mxGeometry x="-0.0436" relative="1" as="geometry">
            <mxPoint x="605" y="260" as="sourcePoint" />
            <Array as="points">
              <mxPoint x="580" y="260" />
            </Array>
            <mxPoint x="600" y="260" as="targetPoint" />
            <mxPoint as="offset" />
          </mxGeometry>
        </mxCell>
        <mxCell id="WAS1BrxhrEb62qMjdOB_-7" value="" style="endArrow=classic;html=1;rounded=0;dashed=1;" parent="1" source="DdnoM_6Xdvgl_mfT2xnZ-5" target="DdnoM_6Xdvgl_mfT2xnZ-1" edge="1">
          <mxGeometry width="50" height="50" relative="1" as="geometry">
            <mxPoint x="420" y="470" as="sourcePoint" />
            <mxPoint x="230" y="470" as="targetPoint" />
            <Array as="points">
              <mxPoint x="365" y="470" />
            </Array>
          </mxGeometry>
        </mxCell>
        <mxCell id="WAS1BrxhrEb62qMjdOB_-8" value="8. confirmacaoCriacao()" style="edgeLabel;html=1;align=center;verticalAlign=middle;resizable=0;points=[];" parent="WAS1BrxhrEb62qMjdOB_-7" vertex="1" connectable="0">
          <mxGeometry x="-0.0247" y="-3" relative="1" as="geometry">
            <mxPoint x="-2" y="-7" as="offset" />
          </mxGeometry>
        </mxCell>
        <mxCell id="WAS1BrxhrEb62qMjdOB_-9" value="" style="endArrow=classic;html=1;rounded=0;dashed=1;" parent="1" source="9W2UMyhUDM8AN_5umNmA-5" target="9W2UMyhUDM8AN_5umNmA-2" edge="1">
          <mxGeometry width="50" height="50" relative="1" as="geometry">
            <mxPoint x="645" y="400" as="sourcePoint" />
            <mxPoint x="345" y="400" as="targetPoint" />
            <Array as="points">
              <mxPoint x="410" y="320" />
              <mxPoint x="320" y="320" />
            </Array>
          </mxGeometry>
        </mxCell>
        <mxCell id="WAS1BrxhrEb62qMjdOB_-10" value="4. Atualizar a tela" style="edgeLabel;html=1;align=center;verticalAlign=middle;resizable=0;points=[];" parent="WAS1BrxhrEb62qMjdOB_-9" vertex="1" connectable="0">
          <mxGeometry x="-0.0247" y="-3" relative="1" as="geometry">
            <mxPoint x="-1" y="-7" as="offset" />
          </mxGeometry>
        </mxCell>
        <mxCell id="DdnoM_6Xdvgl_mfT2xnZ-2" value="" style="endArrow=classic;html=1;rounded=0;" edge="1" parent="1">
          <mxGeometry width="50" height="50" relative="1" as="geometry">
            <mxPoint x="100" y="410" as="sourcePoint" />
            <mxPoint x="282.5" y="410" as="targetPoint" />
          </mxGeometry>
        </mxCell>
        <mxCell id="DdnoM_6Xdvgl_mfT2xnZ-3" value="5. Insere conteúdo do post" style="edgeLabel;html=1;align=center;verticalAlign=middle;resizable=0;points=[];" vertex="1" connectable="0" parent="DdnoM_6Xdvgl_mfT2xnZ-2">
          <mxGeometry x="-0.0933" y="-1" relative="1" as="geometry">
            <mxPoint x="8" y="-11" as="offset" />
          </mxGeometry>
        </mxCell>
        <mxCell id="DdnoM_6Xdvgl_mfT2xnZ-4" value="6. eventoAtualizaPost()" style="html=1;verticalAlign=bottom;endArrow=block;edgeStyle=elbowEdgeStyle;elbow=vertical;curved=0;rounded=0;" edge="1" parent="1">
          <mxGeometry x="0.0145" relative="1" as="geometry">
            <mxPoint x="292.5" y="410" as="sourcePoint" />
            <Array as="points">
              <mxPoint x="424.5" y="410" />
            </Array>
            <mxPoint x="465" y="410" as="targetPoint" />
            <mxPoint as="offset" />
          </mxGeometry>
        </mxCell>
        <mxCell id="DdnoM_6Xdvgl_mfT2xnZ-6" value="7. setInfoPost()" style="html=1;verticalAlign=bottom;endArrow=block;edgeStyle=elbowEdgeStyle;elbow=vertical;curved=0;rounded=0;" edge="1" parent="1" source="DdnoM_6Xdvgl_mfT2xnZ-5" target="9W2UMyhUDM8AN_5umNmA-3">
          <mxGeometry x="0.0145" relative="1" as="geometry">
            <mxPoint x="500" y="410" as="sourcePoint" />
            <Array as="points">
              <mxPoint x="632" y="410" />
            </Array>
            <mxPoint x="672.5" y="410" as="targetPoint" />
            <mxPoint as="offset" />
          </mxGeometry>
        </mxCell>
      </root>
    </mxGraphModel>
  </diagram>
</mxfile>
